<svg width="1000" height="126" viewBox="0 0 1000 126" fill="none" xmlns="http://www.w3.org/2000/svg">
<path d="M58.2205 1.18199V16.4296H17.4899V91.9587H0V1.18199H58.2205Z" fill="white"/>
<path d="M74.1728 126V1.18199H91.4848V15.8977H92.967C93.9947 14.0066 95.4769 11.8199 97.4136 9.33771C99.3503 6.85553 102.038 4.68855 105.477 2.83677C108.915 0.94559 113.461 0 119.113 0C126.465 0 133.026 1.85178 138.796 5.55535C144.567 9.25891 149.093 14.5976 152.373 21.5713C155.693 28.545 157.353 36.9371 157.353 46.7477C157.353 56.5582 155.713 64.97 152.433 71.9831C149.152 78.9568 144.646 84.3349 138.915 88.1173C133.184 91.8602 126.642 93.7317 119.291 93.7317C113.757 93.7317 109.232 92.8058 105.714 90.954C102.236 89.1022 99.5084 86.9353 97.5322 84.4531C95.5559 81.9709 94.0342 79.7645 92.967 77.834H91.8998V126H74.1728ZM91.5441 46.5703C91.5441 52.9531 92.4729 58.5478 94.3306 63.3546C96.1883 68.1613 98.876 71.924 102.394 74.6426C105.911 77.3218 110.22 78.6613 115.318 78.6613C120.615 78.6613 125.042 77.2627 128.599 74.4653C132.156 71.6285 134.844 67.787 136.662 62.9409C138.52 58.0947 139.449 52.6379 139.449 46.5703C139.449 40.5816 138.539 35.2036 136.721 30.4362C134.943 25.6688 132.255 21.9062 128.658 19.1482C125.101 16.3902 120.654 15.0113 115.318 15.0113C110.18 15.0113 105.832 16.3311 102.275 18.9709C98.7574 21.6107 96.0895 25.2946 94.2713 30.0225C92.4532 34.7505 91.5441 40.2664 91.5441 46.5703Z" fill="white"/>
<path d="M182.54 126C179.892 126 177.481 125.783 175.307 125.35C173.133 124.956 171.512 124.523 170.445 124.05L174.714 109.57C177.955 110.437 180.84 110.811 183.37 110.693C185.899 110.575 188.133 109.629 190.069 107.856C192.046 106.083 193.785 103.188 195.287 99.1688L197.48 93.1407L164.161 1.18199H183.133L206.196 71.6285H207.144L230.207 1.18199H249.238L211.709 104.074C209.97 108.802 207.757 112.801 205.069 116.071C202.381 119.381 199.18 121.863 195.465 123.518C191.749 125.173 187.441 126 182.54 126Z" fill="white"/>
<path d="M298.377 93.7908C289.563 93.7908 281.974 91.8011 275.611 87.8218C269.287 83.803 264.425 78.2673 261.026 71.2148C257.627 64.1623 255.927 56.0854 255.927 46.984C255.927 37.7645 257.666 29.6285 261.144 22.576C264.623 15.4841 269.524 9.9484 275.848 5.96904C282.172 1.98968 289.622 0 298.199 0C305.116 0 311.282 1.28049 316.697 3.84146C322.112 6.36304 326.479 9.909 329.799 14.4794C333.159 19.0497 335.155 24.3884 335.788 30.4953H318.535C317.586 26.2401 315.412 22.576 312.013 19.5028C308.654 16.4296 304.148 14.8931 298.496 14.8931C293.555 14.8931 289.227 16.1932 285.512 18.7936C281.836 21.3546 278.97 25.0188 276.915 29.7861C274.86 34.5141 273.832 40.1088 273.832 46.5703C273.832 53.1895 274.84 58.9024 276.856 63.7092C278.871 68.5159 281.717 72.2392 285.393 74.879C289.108 77.5188 293.476 78.8386 298.496 78.8386C301.855 78.8386 304.899 78.228 307.626 77.0066C310.393 75.7458 312.705 73.9531 314.563 71.6285C316.46 69.3039 317.784 66.5066 318.535 63.2364H335.788C335.155 69.1069 333.238 74.3471 330.037 78.9568C326.835 83.5666 322.547 87.1914 317.171 89.8311C311.835 92.4709 305.571 93.7908 298.377 93.7908Z" fill="white"/>
<path d="M345.07 16.4296V1.18199H421.907V16.4296H392.204V91.9587H374.892V16.4296H345.07Z" fill="white"/>
<path d="M499.592 38.9465V54.2533H450.265V38.9465H499.592ZM455.245 1.18199V91.9587H437.874V1.18199H455.245ZM511.984 1.18199V91.9587H494.672V1.18199H511.984Z" fill="white"/>
<path d="M571.275 93.7908C562.738 93.7908 555.287 91.8405 548.924 87.94C542.56 84.0394 537.62 78.5825 534.102 71.5694C530.584 64.5563 528.825 56.3612 528.825 46.984C528.825 37.5675 530.584 29.333 534.102 22.2805C537.62 15.2279 542.56 9.7514 548.924 5.85084C555.287 1.95028 562.738 0 571.275 0C579.813 0 587.263 1.95028 593.627 5.85084C599.99 9.7514 604.931 15.2279 608.449 22.2805C611.966 29.333 613.725 37.5675 613.725 46.984C613.725 56.3612 611.966 64.5563 608.449 71.5694C604.931 78.5825 599.99 84.0394 593.627 87.94C587.263 91.8405 579.813 93.7908 571.275 93.7908ZM571.334 78.9568C576.868 78.9568 581.453 77.4991 585.089 74.5835C588.725 71.6679 591.413 67.787 593.152 62.9409C594.931 58.0947 595.82 52.7561 595.82 46.9249C595.82 41.1332 594.931 35.8143 593.152 30.9681C591.413 26.0825 588.725 22.1623 585.089 19.2073C581.453 16.2523 576.868 14.7749 571.334 14.7749C565.761 14.7749 561.137 16.2523 557.461 19.2073C553.825 22.1623 551.117 26.0825 549.339 30.9681C547.6 35.8143 546.73 41.1332 546.73 46.9249C546.73 52.7561 547.6 58.0947 549.339 62.9409C551.117 67.787 553.825 71.6679 557.461 74.5835C561.137 77.4991 565.761 78.9568 571.334 78.9568Z" fill="white"/>
<path d="M688.95 1.18199V16.4296H648.22V91.9587H630.73V1.18199H688.95Z" fill="white"/>
<path d="M704.903 126V1.18199H722.215V15.8977H723.697C724.725 14.0066 726.207 11.8199 728.143 9.33771C730.08 6.85553 732.768 4.68855 736.207 2.83677C739.645 0.94559 744.191 0 749.843 0C757.194 0 763.756 1.85178 769.526 5.55535C775.297 9.25891 779.822 14.5976 783.103 21.5713C786.423 28.545 788.083 36.9371 788.083 46.7477C788.083 56.5582 786.443 64.97 783.162 71.9831C779.882 78.9568 775.376 84.3349 769.645 88.1173C763.914 91.8602 757.372 93.7317 750.021 93.7317C744.487 93.7317 739.961 92.8058 736.444 90.954C732.966 89.1022 730.238 86.9353 728.262 84.4531C726.286 81.9709 724.764 79.7645 723.697 77.834H722.63V126H704.903ZM722.274 46.5703C722.274 52.9531 723.203 58.5478 725.06 63.3546C726.918 68.1613 729.606 71.924 733.124 74.6426C736.641 77.3218 740.95 78.6613 746.048 78.6613C751.345 78.6613 755.771 77.2627 759.329 74.4653C762.886 71.6285 765.574 67.787 767.392 62.9409C769.25 58.0947 770.178 52.6379 770.178 46.5703C770.178 40.5816 769.269 35.2036 767.451 30.4362C765.673 25.6688 762.985 21.9062 759.388 19.1482C755.831 16.3902 751.384 15.0113 746.048 15.0113C740.91 15.0113 736.562 16.3311 733.005 18.9709C729.487 21.6107 726.819 25.2946 725.001 30.0225C723.183 34.7505 722.274 40.2664 722.274 46.5703Z" fill="white"/>
<path d="M831.664 93.9681C825.893 93.9681 820.676 92.9043 816.012 90.7767C811.348 88.6098 807.652 85.4775 804.925 81.3799C802.237 77.2824 800.893 72.2589 800.893 66.3096C800.893 61.1876 801.881 56.9719 803.858 53.6623C805.834 50.3527 808.502 47.7326 811.862 45.8021C815.221 43.8715 818.976 42.4137 823.126 41.4287C827.276 40.4437 831.506 39.6951 835.814 39.1829C841.268 38.5525 845.695 38.0403 849.094 37.6463C852.493 37.2129 854.964 36.5234 856.505 35.5779C858.047 34.6323 858.817 33.0957 858.817 30.9681V30.5544C858.817 25.3931 857.355 21.394 854.43 18.5572C851.545 15.7204 847.237 14.3021 841.505 14.3021C835.537 14.3021 830.834 15.6219 827.395 18.2617C823.996 20.8621 821.644 23.758 820.34 26.9493L803.68 23.167C805.656 17.651 808.541 13.1989 812.336 9.8105C816.17 6.38274 820.577 3.90055 825.557 2.36397C830.537 0.787987 835.774 0 841.268 0C844.905 0 848.758 0.433396 852.829 1.30019C856.94 2.12758 860.774 3.66416 864.331 5.90994C867.928 8.15572 870.873 11.3668 873.165 15.5432C875.457 19.6801 876.604 25.0582 876.604 31.6773V91.9587H859.292V79.5478H858.58C857.434 81.833 855.715 84.0788 853.422 86.2852C851.13 88.4916 848.185 90.3236 844.588 91.7814C840.992 93.2392 836.683 93.9681 831.664 93.9681ZM835.517 79.7842C840.418 79.7842 844.608 78.8189 848.086 76.8884C851.604 74.9578 854.272 72.4362 856.09 69.3236C857.948 66.1717 858.877 62.803 858.877 59.2176V47.5159C858.244 48.1463 857.019 48.7373 855.201 49.2889C853.422 49.8011 851.387 50.2542 849.094 50.6482C846.802 51.0028 844.569 51.3377 842.395 51.6529C840.221 51.9287 838.403 52.1651 836.94 52.3621C833.502 52.7955 830.359 53.5244 827.514 54.5488C824.707 55.5732 822.454 57.0507 820.755 58.9812C819.095 60.8724 818.265 63.394 818.265 66.546C818.265 70.9193 819.885 74.2289 823.126 76.4747C826.367 78.681 830.498 79.7842 835.517 79.7842Z" fill="white"/>
<path d="M948.538 70.0919L977.945 1.18199H993.241L955.119 91.9587H941.957L904.606 1.18199H919.725L948.538 70.0919ZM914.804 1.18199V91.9587H897.432V1.18199H914.804ZM982.747 91.9587V1.18199H1000V91.9587H982.747Z" fill="white"/>
</svg>
