<svg width="100" height="100" viewBox="0 0 100 100" fill="none" xmlns="http://www.w3.org/2000/svg">
<path d="M0 50C0 22.3858 22.3858 0 50 0V0C77.6142 0 100 22.3858 100 50V50C100 77.6142 77.6142 100 50 100V100C22.3858 100 0 77.6142 0 50V50Z" fill="#464646"/>
<mask id="path-2-inside-1_548_10586" fill="white">
<path fill-rule="evenodd" clip-rule="evenodd" d="M44.4319 31.6087C45.4871 32.3733 46.3935 33.2375 47.1719 34.1694C47.8585 28.8992 50.2156 23.7278 56.1252 19L59.8734 23.6852C54.4186 28.0491 53.0501 32.5326 52.9465 37.3449C52.9395 37.6672 52.9383 37.991 52.9423 38.3165C56.2154 34.5341 61.1456 32.8429 67.5001 32.8429V38.8429C62.0292 38.8429 59.0547 40.3074 57.3239 42.4275C56.0383 44.0024 55.1717 46.2529 54.7653 49.343H58.9921H64.9996L64.6996 55.343L63.5496 78.343H37.4496L36.2996 55.343L35.9996 49.343H42.0071H45.9371C45.81 46.7294 45.4655 44.0131 44.5615 41.5722C43.7731 39.4434 42.6102 37.6981 40.9117 36.4675C39.2246 35.2452 36.7503 34.3428 33 34.3428V28.3428C37.7497 28.3428 41.5254 29.5029 44.4319 31.6087ZM43.1571 72.343L42.3071 55.343H58.6921L57.8421 72.343H43.1571Z"/>
</mask>
<path fill-rule="evenodd" clip-rule="evenodd" d="M44.4319 31.6087C45.4871 32.3733 46.3935 33.2375 47.1719 34.1694C47.8585 28.8992 50.2156 23.7278 56.1252 19L59.8734 23.6852C54.4186 28.0491 53.0501 32.5326 52.9465 37.3449C52.9395 37.6672 52.9383 37.991 52.9423 38.3165C56.2154 34.5341 61.1456 32.8429 67.5001 32.8429V38.8429C62.0292 38.8429 59.0547 40.3074 57.3239 42.4275C56.0383 44.0024 55.1717 46.2529 54.7653 49.343H58.9921H64.9996L64.6996 55.343L63.5496 78.343H37.4496L36.2996 55.343L35.9996 49.343H42.0071H45.9371C45.81 46.7294 45.4655 44.0131 44.5615 41.5722C43.7731 39.4434 42.6102 37.6981 40.9117 36.4675C39.2246 35.2452 36.7503 34.3428 33 34.3428V28.3428C37.7497 28.3428 41.5254 29.5029 44.4319 31.6087ZM43.1571 72.343L42.3071 55.343H58.6921L57.8421 72.343H43.1571Z" fill="#4D4D4D"/>
<path d="M47.1719 34.1694L42.5673 38.0161L51.3517 48.5313L53.1217 34.9444L47.1719 34.1694ZM44.4319 31.6087L47.9521 26.7499L47.9521 26.7499L44.4319 31.6087ZM56.1252 19L60.8104 15.2518L57.0622 10.5666L52.377 14.3148L56.1252 19ZM59.8734 23.6852L63.6217 28.3703L68.3068 24.6221L64.5586 19.9369L59.8734 23.6852ZM52.9465 37.3449L58.9451 37.4741V37.4741L52.9465 37.3449ZM52.9423 38.3165L46.9427 38.3888L47.1333 54.1982L57.4793 42.2427L52.9423 38.3165ZM67.5001 32.8429H73.5001V26.8429H67.5001V32.8429ZM67.5001 38.8429V44.8429H73.5001V38.8429H67.5001ZM57.3239 42.4275L61.9718 46.2219L57.3239 42.4275ZM54.7653 49.343L48.8165 48.5606L47.9245 55.343H54.7653V49.343ZM64.9996 49.343L70.9921 49.6426L71.3071 43.343H64.9996V49.343ZM64.6996 55.343L70.6921 55.6426L64.6996 55.343ZM63.5496 78.343V84.343H69.2571L69.5421 78.6426L63.5496 78.343ZM37.4496 78.343L31.4571 78.6426L31.7421 84.343H37.4496V78.343ZM36.2996 55.343L30.3071 55.6426L36.2996 55.343ZM35.9996 49.343V43.343H29.6921L30.0071 49.6426L35.9996 49.343ZM45.9371 49.343V55.343H52.2359L51.93 49.0516L45.9371 49.343ZM44.5615 41.5722L50.188 39.4884L50.188 39.4884L44.5615 41.5722ZM40.9117 36.4675L44.4319 31.6087L44.4319 31.6087L40.9117 36.4675ZM33 34.3428H27V40.3428H33V34.3428ZM33 28.3428V22.3428H27V28.3428H33ZM42.3071 55.343V49.343H35.9996L36.3146 55.6426L42.3071 55.343ZM43.1571 72.343L37.1646 72.6426L37.4496 78.343H43.1571V72.343ZM58.6921 55.343L64.6846 55.6426L64.9996 49.343H58.6921V55.343ZM57.8421 72.343V78.343H63.5496L63.8346 72.6426L57.8421 72.343ZM51.7766 30.3226C50.6966 29.0298 49.4298 27.8205 47.9521 26.7499L40.9117 36.4675C41.5445 36.926 42.0904 37.4453 42.5673 38.0161L51.7766 30.3226ZM52.377 14.3148C45.2198 20.0407 42.1033 26.6309 41.2222 33.3943L53.1217 34.9444C53.6137 31.1676 55.2113 27.415 59.8734 23.6852L52.377 14.3148ZM64.5586 19.9369L60.8104 15.2518L51.44 22.7482L55.1883 27.4334L64.5586 19.9369ZM58.9451 37.4741C58.9853 35.6048 59.2628 34.1478 59.8599 32.8418C60.4487 31.5542 61.5102 30.0595 63.6217 28.3703L56.1252 19C52.7818 21.6748 50.4317 24.6039 48.9466 27.852C47.4698 31.0818 47.0112 34.2727 46.9479 37.2157L58.9451 37.4741ZM58.9418 38.2441C58.9386 37.9812 58.9397 37.7248 58.9451 37.4741L46.9479 37.2157C46.9394 37.6097 46.938 38.0008 46.9427 38.3888L58.9418 38.2441ZM67.5001 26.8429C60.1315 26.8429 53.2207 28.8256 48.4052 34.3902L57.4793 42.2427C59.2101 40.2426 62.1597 38.8429 67.5001 38.8429V26.8429ZM73.5001 38.8429V32.8429H61.5001V38.8429H73.5001ZM61.9718 46.2219C62.1522 46.0009 62.4555 45.712 63.1601 45.4415C63.9332 45.1446 65.2726 44.8429 67.5001 44.8429V32.8429C60.9586 32.8429 55.9397 34.6353 52.676 38.6332L61.9718 46.2219ZM60.7141 50.1253C61.0342 47.6915 61.6313 46.6391 61.9718 46.2219L52.676 38.6332C50.4453 41.3658 49.3092 44.8143 48.8165 48.5606L60.7141 50.1253ZM58.9921 43.343H54.7653V55.343H58.9921V43.343ZM64.9996 43.343H58.9921V55.343H64.9996V43.343ZM70.6921 55.6426L70.9921 49.6426L59.0071 49.0433L58.7071 55.0433L70.6921 55.6426ZM69.5421 78.6426L70.6921 55.6426L58.7071 55.0433L57.5571 78.0433L69.5421 78.6426ZM37.4496 84.343H63.5496V72.343H37.4496V84.343ZM30.3071 55.6426L31.4571 78.6426L43.4421 78.0433L42.2921 55.0433L30.3071 55.6426ZM30.0071 49.6426L30.3071 55.6426L42.2921 55.0433L41.9921 49.0433L30.0071 49.6426ZM42.0071 43.343H35.9996V55.343H42.0071V43.343ZM45.9371 43.343H42.0071V55.343H45.9371V43.343ZM38.9349 43.656C39.5301 45.2629 39.8296 47.2778 39.9442 49.6343L51.93 49.0516C51.7905 46.1809 51.4009 42.7634 50.188 39.4884L38.9349 43.656ZM37.3915 41.3264C37.895 41.6912 38.4455 42.3343 38.9349 43.656L50.188 39.4884C49.1007 36.5525 47.3255 33.7051 44.4319 31.6087L37.3915 41.3264ZM33 40.3428C35.7489 40.3428 36.9223 40.9865 37.3915 41.3264L44.4319 31.6087C41.5268 29.504 37.7518 28.3428 33 28.3428V40.3428ZM27 28.3428V34.3428H39V28.3428H27ZM47.9521 26.7499C43.8252 23.76 38.7475 22.3428 33 22.3428V34.3428C36.7518 34.3428 39.2255 35.2459 40.9117 36.4675L47.9521 26.7499ZM36.3146 55.6426L37.1646 72.6426L49.1496 72.0433L48.2996 55.0433L36.3146 55.6426ZM58.6921 49.343H42.3071V61.343H58.6921V49.343ZM63.8346 72.6426L64.6846 55.6426L52.6996 55.0433L51.8496 72.0433L63.8346 72.6426ZM43.1571 78.343H57.8421V66.343H43.1571V78.343Z" fill="#969696" mask="url(#path-2-inside-1_548_10586)"/>
</svg>
