<svg width="18" height="22" viewBox="0 0 18 22" fill="none" xmlns="http://www.w3.org/2000/svg">
<path d="M3.33331 2.4165H14.6666V0.916504H3.33331V2.4165ZM16.4166 4.1665V20.584H17.9166V4.1665H16.4166ZM1.58331 20.584V4.16651H0.083313V20.584H1.58331ZM16.8018 20.3737L9.67593 15.7928L8.86479 17.0545L15.9907 21.6355L16.8018 20.3737ZM8.32403 15.7928L1.19812 20.3737L2.00926 21.6355L9.13517 17.0545L8.32403 15.7928ZM9.67593 15.7928C9.26417 15.5281 8.73579 15.5281 8.32403 15.7928L9.13517 17.0545C9.05282 17.1075 8.94714 17.1075 8.86479 17.0545L9.67593 15.7928ZM0.083313 20.584C0.083313 21.573 1.17737 22.1703 2.00926 21.6355L1.19812 20.3737C1.3645 20.2668 1.58331 20.3862 1.58331 20.584H0.083313ZM16.4166 20.584C16.4166 20.3862 16.6355 20.2668 16.8018 20.3737L15.9907 21.6355C16.8226 22.1703 17.9166 21.573 17.9166 20.584H16.4166ZM14.6666 2.4165C15.6331 2.4165 16.4166 3.20001 16.4166 4.1665H17.9166C17.9166 2.37158 16.4616 0.916504 14.6666 0.916504V2.4165ZM3.33331 0.916504C1.53839 0.916504 0.083313 2.37158 0.083313 4.16651H1.58331C1.58331 3.20001 2.36682 2.4165 3.33331 2.4165V0.916504Z" fill="white"/>
</svg>
