<svg width="16" height="19" viewBox="0 0 16 19" fill="none" xmlns="http://www.w3.org/2000/svg">
<path d="M1 3.5C1 2.11929 2.11929 1 3.5 1H12.5C13.8807 1 15 2.11929 15 3.5V17.0842C15 17.4797 14.5624 17.7187 14.2296 17.5048L8.27038 13.6738C8.10568 13.5679 7.89433 13.5679 7.72962 13.6738L1.77038 17.5048C1.43762 17.7187 1 17.4797 1 17.0842V3.5Z" fill="white"/>
<path d="M8.27038 13.6738L7.86481 14.3047L8.27038 13.6738ZM7.72962 13.6738L8.13519 14.3047L7.72962 13.6738ZM1.77038 17.5048L1.36481 16.8739L1.77038 17.5048ZM14.2296 17.5048L14.6352 16.8739L14.2296 17.5048ZM3.5 1.75H12.5V0.25H3.5V1.75ZM14.25 3.5V17.0842H15.75V3.5H14.25ZM1.75 17.0842V3.5H0.25V17.0842H1.75ZM14.6352 16.8739L8.67595 13.0429L7.86481 14.3047L13.8241 18.1356L14.6352 16.8739ZM7.32406 13.0429L1.36481 16.8739L2.17595 18.1356L8.13519 14.3047L7.32406 13.0429ZM8.67595 13.0429C8.26419 12.7782 7.73582 12.7782 7.32406 13.0429L8.13519 14.3047C8.05284 14.3576 7.94717 14.3576 7.86481 14.3047L8.67595 13.0429ZM0.25 17.0842C0.25 18.0731 1.34406 18.6704 2.17595 18.1356L1.36481 16.8739C1.53119 16.7669 1.75 16.8864 1.75 17.0842H0.25ZM14.25 17.0842C14.25 16.8864 14.4688 16.7669 14.6352 16.8739L13.8241 18.1356C14.6559 18.6704 15.75 18.0731 15.75 17.0842H14.25ZM12.5 1.75C13.4665 1.75 14.25 2.5335 14.25 3.5H15.75C15.75 1.70507 14.2949 0.25 12.5 0.25V1.75ZM3.5 0.25C1.70507 0.25 0.25 1.70508 0.25 3.5H1.75C1.75 2.5335 2.5335 1.75 3.5 1.75V0.25Z" fill="white"/>
</svg>
