<svg width="34" height="34" viewBox="0 0 34 34" fill="none" xmlns="http://www.w3.org/2000/svg">
<path fill-rule="evenodd" clip-rule="evenodd" d="M11.7542 6.25H16.2458C18.4569 6.24999 20.1776 6.24999 21.5401 6.3976C22.926 6.54775 24.0298 6.85782 24.9676 7.53914C25.5406 7.95547 26.0445 8.45941 26.4609 9.03245C27.1422 9.97021 27.4522 11.074 27.6024 12.4599C27.75 13.8224 27.75 15.5431 27.75 17.7542V22.2458C27.75 24.4569 27.75 26.1776 27.6024 27.5401C27.4522 28.926 27.1422 30.0298 26.4609 30.9676C26.0445 31.5406 25.5406 32.0445 24.9676 32.4609C24.0298 33.1422 22.926 33.4522 21.5401 33.6024C20.1776 33.75 18.4569 33.75 16.2458 33.75H11.7542C9.54313 33.75 7.82238 33.75 6.45993 33.6024C5.07405 33.4522 3.97021 33.1422 3.03245 32.4609C2.45941 32.0445 1.95547 31.5406 1.53914 30.9676C0.857816 30.0298 0.547752 28.926 0.397601 27.5401C0.249988 26.1776 0.249993 24.4569 0.25 22.2458V17.7542C0.249993 15.5431 0.249988 13.8224 0.397601 12.4599C0.547752 11.074 0.857816 9.97021 1.53914 9.03245C1.95547 8.45941 2.45941 7.95547 3.03245 7.53914C3.97021 6.85782 5.07405 6.54775 6.45993 6.3976C7.82239 6.24999 9.54314 6.24999 11.7542 6.25ZM6.6215 7.88887C5.36324 8.0252 4.55356 8.28808 3.91413 8.75266C3.46843 9.07648 3.07648 9.46843 2.75266 9.91413C2.28808 10.5536 2.0252 11.3632 1.88887 12.6215C1.75103 13.8938 1.75 15.5335 1.75 17.8V22.2C1.75 24.4665 1.75103 26.1062 1.88887 27.3785C2.0252 28.6368 2.28808 29.4464 2.75266 30.0859C3.07648 30.5316 3.46843 30.9235 3.91413 31.2473C4.55356 31.7119 5.36324 31.9748 6.6215 32.1111C7.89379 32.249 9.53345 32.25 11.8 32.25H16.2C18.4665 32.25 20.1062 32.249 21.3785 32.1111C22.6368 31.9748 23.4464 31.7119 24.0859 31.2473C24.5316 30.9235 24.9235 30.5316 25.2473 30.0859C25.7119 29.4464 25.9748 28.6368 26.1111 27.3785C26.249 26.1062 26.25 24.4665 26.25 22.2V17.8C26.25 15.5335 26.249 13.8938 26.1111 12.6215C25.9748 11.3632 25.7119 10.5536 25.2473 9.91413C24.9235 9.46843 24.5316 9.07648 24.0859 8.75266C23.4464 8.28808 22.6368 8.0252 21.3785 7.88887C20.1062 7.75103 18.4665 7.75 16.2 7.75H11.8C9.53345 7.75 7.89379 7.75103 6.6215 7.88887Z" fill="#808080"/>
<path fill-rule="evenodd" clip-rule="evenodd" d="M14 14.75C11.1005 14.75 8.75 17.1005 8.75 20C8.75 22.8995 11.1005 25.25 14 25.25C16.8995 25.25 19.25 22.8995 19.25 20C19.25 17.1005 16.8995 14.75 14 14.75ZM7.25 20C7.25 16.2721 10.2721 13.25 14 13.25C17.7279 13.25 20.75 16.2721 20.75 20C20.75 23.7279 17.7279 26.75 14 26.75C10.2721 26.75 7.25 23.7279 7.25 20Z" fill="#808080"/>
<path d="M24 0C24.0039 5.52123 28.4788 9.99609 34 10C28.4788 10.0039 24.0039 14.4788 24 20C23.9961 14.4788 19.5212 10.0039 14 10C19.5212 9.99609 23.9961 5.52123 24 0Z" fill="white"/>
</svg>
