<svg width="18" height="18" viewBox="0 0 18 18" fill="none" xmlns="http://www.w3.org/2000/svg">
<path d="M17.25 9C17.25 10.7441 16.9859 11.6666 16.3755 12.5847C16.207 12.8381 16.185 13.1165 16.1853 13.2912C16.1856 13.4819 16.2148 13.6799 16.2482 13.857C16.2824 14.0381 16.3279 14.2323 16.3721 14.4186C16.377 14.4393 16.3819 14.4599 16.3868 14.4805C16.4273 14.6509 16.4671 14.8185 16.5032 14.9885C16.5856 15.3764 16.6343 15.7162 16.6209 15.9952C16.6078 16.2699 16.5392 16.4001 16.4697 16.4697C16.3987 16.5407 16.2626 16.6121 15.9803 16.6283C15.6958 16.6447 15.35 16.5994 14.9612 16.5206C14.7706 16.4819 14.5818 16.4379 14.3922 16.3935L14.3749 16.3894C14.1956 16.3475 14.0104 16.3041 13.8401 16.2705C13.6682 16.2366 13.4776 16.2055 13.2971 16.1999C13.1424 16.1952 12.8566 16.2018 12.5965 16.3678C11.9471 16.7822 11.4716 16.9892 10.9756 17.1033C10.4625 17.2212 9.88608 17.25 9 17.25C4.44365 17.25 0.75 13.5563 0.75 9C0.75 4.44365 4.44365 0.75 9 0.75C13.5563 0.75 17.25 4.44365 17.25 9Z" stroke="white" stroke-width="1.5"/>
</svg>
