<svg width="21" height="20" viewBox="0 0 21 20" fill="none" xmlns="http://www.w3.org/2000/svg">
<path d="M3.5 3.25C3.08579 3.25 2.75 3.58579 2.75 4C2.75 4.41421 3.08579 4.75 3.5 4.75V3.25ZM17.5 4.75C17.9142 4.75 18.25 4.41421 18.25 4C18.25 3.58579 17.9142 3.25 17.5 3.25V4.75ZM5.5 0.25C5.08579 0.25 4.75 0.585786 4.75 1C4.75 1.41421 5.08579 1.75 5.5 1.75V0.25ZM15.5 1.75C15.9142 1.75 16.25 1.41421 16.25 1C16.25 0.585786 15.9142 0.25 15.5 0.25V1.75ZM3.5 7.75H17.5V6.25H3.5V7.75ZM18.75 9V17H20.25V9H18.75ZM17.5 18.25H3.5V19.75H17.5V18.25ZM2.25 17V9H0.75V17H2.25ZM3.5 18.25C2.80964 18.25 2.25 17.6904 2.25 17H0.75C0.75 18.5188 1.98122 19.75 3.5 19.75V18.25ZM18.75 17C18.75 17.6904 18.1904 18.25 17.5 18.25V19.75C19.0188 19.75 20.25 18.5188 20.25 17H18.75ZM17.5 7.75C18.1904 7.75 18.75 8.30964 18.75 9H20.25C20.25 7.48122 19.0188 6.25 17.5 6.25V7.75ZM3.5 6.25C1.98122 6.25 0.75 7.48122 0.75 9H2.25C2.25 8.30964 2.80964 7.75 3.5 7.75V6.25ZM3.5 4.75H17.5V3.25H3.5V4.75ZM5.5 1.75H15.5V0.25H5.5V1.75Z" fill="white"/>
</svg>
