<svg width="24" height="22" viewBox="0 0 24 22" fill="none" xmlns="http://www.w3.org/2000/svg">
<path d="M12.7719 20.0587L13.2659 20.9281C13.2759 20.9224 13.2858 20.9166 13.2957 20.9105L12.7719 20.0587ZM12 4.4421L11.1291 4.93363L11.1321 4.93882L12 4.4421ZM11.2387 20.0587L10.7155 20.911L10.7272 20.918L11.2387 20.0587ZM13.75 7.49984L14.598 8.02984L14.9151 7.52243L14.6179 7.00311L13.75 7.49984ZM10.8333 12.1665L9.98533 11.6365L9.64315 12.184L10.0013 12.7212L10.8333 12.1665ZM13.1667 15.6665L14.0823 16.0684L14.3023 15.5672L13.9987 15.1118L13.1667 15.6665ZM12 21.3332C12.2932 21.3332 12.5633 21.2468 12.7394 21.1794C12.9343 21.1048 13.1181 21.0121 13.2659 20.9281L12.2779 19.1892C12.1931 19.2374 12.102 19.2819 12.0245 19.3115C11.9866 19.3261 11.9616 19.3333 11.9496 19.3362C11.9346 19.3397 11.9543 19.3332 12 19.3332V21.3332ZM13.2957 20.9105C16.3312 19.0442 18.8613 16.9957 20.6425 14.8177C22.4241 12.6393 23.5 10.2748 23.5 7.80739H21.5C21.5 9.67114 20.6885 11.6022 19.0943 13.5516C17.4997 15.5014 15.1658 17.413 12.2482 19.2068L13.2957 20.9105ZM23.5 7.80739C23.5 3.68071 20.5072 0.666504 16.6103 0.666504V2.6665C19.3538 2.6665 21.5 4.73581 21.5 7.80739H23.5ZM16.6103 0.666504C14.1397 0.666504 12.2465 2.00255 11.1326 3.94455L12.8674 4.93966C13.678 3.52654 14.957 2.6665 16.6103 2.6665V0.666504ZM12.8709 3.95058C11.7757 2.0102 9.85735 0.666504 7.38973 0.666504V2.6665C9.04597 2.6665 10.3421 3.53922 11.1291 4.93362L12.8709 3.95058ZM7.38973 0.666504C3.49279 0.666504 0.5 3.68071 0.5 7.80739H2.5C2.5 4.73581 4.64619 2.6665 7.38973 2.6665V0.666504ZM0.5 7.80739C0.5 10.2749 1.576 12.6394 3.35907 14.818C5.1417 16.9961 7.67468 19.0446 10.7156 20.9109L11.7617 19.2064C8.83892 17.4125 6.50256 15.5011 4.90679 13.5513C3.31146 11.6021 2.5 9.67108 2.5 7.80739H0.5ZM10.7272 20.918C10.8777 21.0076 11.0631 21.1026 11.2588 21.1782C11.4364 21.2469 11.7067 21.3332 12 21.3332V19.3332C12.0457 19.3332 12.0655 19.3397 12.0512 19.3363C12.0398 19.3336 12.0159 19.3267 11.9798 19.3127C11.9059 19.2842 11.8217 19.2419 11.7501 19.1994L10.7272 20.918ZM11.1321 4.93882L12.8821 7.99656L14.6179 7.00311L12.8679 3.94538L11.1321 4.93882ZM12.902 6.96984L9.98533 11.6365L11.6813 12.6965L14.598 8.02984L12.902 6.96984ZM10.0013 12.7212L12.3346 16.2212L13.9987 15.1118L11.6654 11.6118L10.0013 12.7212ZM12.251 15.2646L10.323 19.6567L12.1543 20.4606L14.0823 16.0684L12.251 15.2646Z" fill="white"/>
</svg>
