<svg width="28" height="28" viewBox="0 0 28 28" fill="none" xmlns="http://www.w3.org/2000/svg">
<path d="M14.7719 23.0587L15.5129 24.3629C15.5279 24.3543 15.5428 24.3455 15.5575 24.3365L14.7719 23.0587ZM14 7.4421L12.6937 8.1794L12.6981 8.18719L14 7.4421ZM13.2387 23.0587L12.4541 24.3371C12.4598 24.3406 12.4656 24.3441 12.4715 24.3476L13.2387 23.0587ZM15.75 10.4998L17.022 11.2948L17.4977 10.5337L17.0519 9.75475L15.75 10.4998ZM12.8333 15.1665L11.5613 14.3715L11.0481 15.1928L11.5853 15.9986L12.8333 15.1665ZM15.1667 18.6665L16.5402 19.2694L16.8702 18.5176L16.4147 17.8345L15.1667 18.6665ZM14 24.8332C14.3843 24.8332 14.722 24.7215 14.9182 24.6464C15.1423 24.5606 15.3493 24.4558 15.5129 24.3629L14.0309 21.7545C13.9989 21.7727 13.9645 21.7909 13.9305 21.8073C13.896 21.824 13.8673 21.8364 13.8458 21.8446C13.8229 21.8534 13.8193 21.8532 13.8335 21.8498C13.8415 21.8479 13.8588 21.8441 13.8843 21.8406C13.9094 21.8372 13.9489 21.8332 14 21.8332V24.8332ZM15.5575 24.3365C18.6225 22.4521 21.2018 20.3692 23.0295 18.1343C24.8579 15.8985 26 13.4257 26 10.8074H23C23 12.5202 22.2546 14.343 20.7072 16.2351C19.1593 18.1279 16.8745 20.0051 13.9863 21.7808L15.5575 24.3365ZM26 10.8074C26 6.41694 22.7956 3.1665 18.6103 3.1665V6.1665C21.0655 6.1665 23 7.99959 23 10.8074H26ZM18.6103 3.1665C15.9353 3.1665 13.8886 4.62155 12.6988 6.69577L15.3011 8.18843C16.0359 6.90754 17.1613 6.1665 18.6103 6.1665V3.1665ZM15.3063 6.70482C14.1341 4.62795 12.0602 3.1665 9.38973 3.1665V6.1665C10.8431 6.1665 11.9837 6.92147 12.6937 8.17939L15.3063 6.70482ZM9.38973 3.1665C5.20444 3.1665 2 6.41694 2 10.8074H5C5 7.99959 6.93454 6.1665 9.38973 6.1665V3.1665ZM2 10.8074C2 13.4258 3.14213 15.8987 4.97215 18.1347C6.80148 20.3698 9.38362 22.4527 12.4541 24.3371L14.0233 21.7802C11.13 20.0045 8.84278 18.1273 7.29372 16.2346C5.74533 14.3428 5 12.5201 5 10.8074H2ZM12.4715 24.3476C12.6418 24.449 12.8524 24.5572 13.0786 24.6446C13.2775 24.7215 13.6155 24.8332 14 24.8332V21.8332C14.0511 21.8332 14.0906 21.8372 14.1158 21.8406C14.1415 21.8441 14.159 21.848 14.1675 21.85C14.1762 21.8521 14.1795 21.8532 14.1771 21.8525C14.1749 21.8518 14.1692 21.8499 14.1601 21.8463C14.1411 21.839 14.1157 21.8279 14.0861 21.8133C14.0568 21.7988 14.0291 21.7835 14.0059 21.7697L12.4715 24.3476ZM12.6981 8.18719L14.4481 11.2449L17.0519 9.75475L15.3019 6.69702L12.6981 8.18719ZM14.478 9.70484L11.5613 14.3715L14.1053 15.9615L17.022 11.2948L14.478 9.70484ZM11.5853 15.9986L13.9186 19.4986L16.4147 17.8345L14.0814 14.3345L11.5853 15.9986ZM13.7932 18.0636L11.8652 22.4557L14.6122 23.6616L16.5402 19.2694L13.7932 18.0636Z" fill="white"/>
</svg>
