<svg width="20" height="18" viewBox="0 0 20 18" fill="none" xmlns="http://www.w3.org/2000/svg">
<path d="M10.6616 16.7647L11.0321 17.4168C11.0396 17.4125 11.0471 17.4081 11.0544 17.4036L10.6616 16.7647ZM10 3.37909L9.34684 3.74773L9.34907 3.75163L10 3.37909ZM9.34743 16.7647L8.95509 17.404L8.96383 17.4092L9.34743 16.7647ZM11.5 6L12.136 6.3975L12.3738 6.01695L12.1509 5.62746L11.5 6ZM9 10L8.364 9.6025L8.10736 10.0131L8.37596 10.416L9 10ZM11 13L11.6867 13.3015L11.8518 12.9256L11.624 12.584L11 13ZM10 17.75C10.2318 17.75 10.4488 17.6814 10.5955 17.6253C10.7562 17.5638 10.9088 17.4869 11.0321 17.4168L10.2911 16.1126C10.2151 16.1558 10.132 16.1966 10.0593 16.2244C10.0236 16.2381 9.99757 16.2458 9.98162 16.2496C9.96349 16.254 9.97165 16.25 10 16.25V17.75ZM11.0544 17.4036C13.65 15.8078 15.8082 14.0592 17.3249 12.2046C18.8419 10.3497 19.75 8.34619 19.75 6.26362H18.25C18.25 7.89346 17.5402 9.57191 16.1638 11.255C14.787 12.9386 12.776 14.5843 10.2688 16.1258L11.0544 17.4036ZM19.75 6.26362C19.75 2.78299 17.2301 0.25 13.9517 0.25V1.75C16.3651 1.75 18.25 3.57431 18.25 6.26362H19.75ZM13.9517 0.25C11.8778 0.25 10.288 1.36968 9.34943 3.00592L10.6506 3.75225C11.3616 2.51267 12.4908 1.75 13.9517 1.75V0.25ZM10.6531 3.01044C9.73095 1.37651 8.11998 0.25 6.04834 0.25V1.75C7.51144 1.75 8.65576 2.52327 9.34685 3.74773L10.6531 3.01044ZM6.04834 0.25C2.76989 0.25 0.25 2.78299 0.25 6.26362H1.75C1.75 3.57431 3.63494 1.75 6.04834 1.75V0.25ZM0.25 6.26362C0.25 8.34624 1.15811 10.3498 2.67641 12.2049C4.19436 14.0595 6.35495 15.8081 8.95513 17.4039L9.73974 16.1255C7.22813 14.584 5.21501 12.9383 3.83719 11.2548C2.45971 9.57179 1.75 7.89341 1.75 6.26362H0.25ZM8.96383 17.4092C9.08863 17.4835 9.24209 17.5621 9.40334 17.6244C9.55097 17.6815 9.7681 17.75 10 17.75V16.25C10.0283 16.25 10.0366 16.2539 10.0189 16.2497C10.0035 16.246 9.97836 16.2385 9.94409 16.2253C9.87423 16.1983 9.79657 16.1592 9.73104 16.1202L8.96383 17.4092ZM9.34907 3.75163L10.8491 6.37254L12.1509 5.62746L10.6509 3.00654L9.34907 3.75163ZM10.864 5.6025L8.364 9.6025L9.636 10.3975L12.136 6.3975L10.864 5.6025ZM8.37596 10.416L10.376 13.416L11.624 12.584L9.62404 9.58397L8.37596 10.416ZM10.3133 12.6985L8.66068 16.4632L10.0342 17.0662L11.6867 13.3015L10.3133 12.6985Z" fill="white"/>
</svg>
