<svg width="21" height="17" viewBox="0 0 21 17" fill="none" xmlns="http://www.w3.org/2000/svg">
<path d="M5.44621 0C7.35288 0 8.8391 1.02608 9.70932 2.5699L11.1363 5.06654C11.2541 5.27251 11.2492 5.52661 11.1235 5.72785L8.85062 9.36922C8.71663 9.58389 8.72064 9.85724 8.86088 10.0679L10.627 12.7204C10.7294 12.8743 10.7609 13.0649 10.7133 13.2436L9.80976 16.6375C9.73053 16.9351 9.3966 17.0834 9.12556 16.9378C3.19337 13.7504 0 9.58148 0 5.68579C0 2.35339 2.376 0 5.44621 0Z" fill="white"/>
<path d="M12.9089 16.6526C12.8128 16.7073 12.4795 16.839 12.1402 16.9681C11.7791 17.1053 11.4167 16.7785 11.5104 16.4033L12.3005 13.2389C12.3444 13.0628 12.3122 12.8764 12.2116 12.7254L10.4422 10.0679C10.302 9.85724 10.298 9.58389 10.432 9.36922L12.7049 5.72785C12.8305 5.52661 12.8354 5.27251 12.7177 5.06654L11.4738 2.8902C11.3604 2.6918 11.3582 2.44646 11.4836 2.25541C12.3855 0.880865 13.779 0 15.5538 0C18.624 0 21 2.35339 21 5.68579C21 9.69597 18.4138 13.2638 12.9089 16.6526Z" fill="white"/>
</svg>
