<svg width="20" height="18" viewBox="0 0 20 18" fill="none" xmlns="http://www.w3.org/2000/svg">
<path fill-rule="evenodd" clip-rule="evenodd" d="M6.78335 0.135538C6.41218 0.0467966 6.02021 0 5.60927 0C2.44713 0 0 2.45098 0 5.92157C0 9.94629 3.33866 13.9073 8.66415 17.3483L10.1468 13.0726L8.10716 10.0132L10.6262 5.9828L6.78335 0.135538ZM10.0374 17.9987C10.246 17.9842 10.5264 17.8554 10.7351 17.7353C16.4048 14.2059 20 10.098 20 5.92157C20 2.45098 17.5529 0 14.3907 0C12.4959 0 11.0229 0.985858 10.0986 2.50836L12.3735 6.01727L9.89245 9.98691L11.8528 12.9274L10.0374 17.9987Z" fill="white"/>
</svg>
