<svg width="24" height="24" viewBox="0 0 24 24" fill="none" xmlns="http://www.w3.org/2000/svg">
<path fill-rule="evenodd" clip-rule="evenodd" d="M11.25 6C11.25 4.48122 12.4812 3.25 14 3.25H18C19.5188 3.25 20.75 4.48122 20.75 6V10C20.75 11.5188 19.5188 12.75 18 12.75H14C12.4812 12.75 11.25 11.5188 11.25 10V6ZM14 4.75C13.3096 4.75 12.75 5.30964 12.75 6V10C12.75 10.6904 13.3096 11.25 14 11.25H18C18.6904 11.25 19.25 10.6904 19.25 10V6C19.25 5.30964 18.6904 4.75 18 4.75H14Z" fill="white"/>
<path fill-rule="evenodd" clip-rule="evenodd" d="M3.25 15C3.25 13.4812 4.48122 12.25 6 12.25H10C11.5188 12.25 12.75 13.4812 12.75 15V19C12.75 20.5188 11.5188 21.75 10 21.75H6C4.48122 21.75 3.25 20.5188 3.25 19V15ZM6 13.75C5.30964 13.75 4.75 14.3096 4.75 15V19C4.75 19.6904 5.30964 20.25 6 20.25H10C10.6904 20.25 11.25 19.6904 11.25 19V15C11.25 14.3096 10.6904 13.75 10 13.75H6Z" fill="white"/>
<path fill-rule="evenodd" clip-rule="evenodd" d="M18.1716 14.6464L20.3536 16.8284C20.5488 17.0237 20.5488 17.3403 20.3536 17.5355L18.1716 19.7175C17.9763 19.9128 17.6597 19.9128 17.4645 19.7175C17.2692 19.5223 17.2692 19.2057 17.4645 19.0104L18.7929 17.682H15C14.7239 17.682 14.5 17.4581 14.5 17.182C14.5 16.9058 14.7239 16.682 15 16.682H18.7929L17.4645 15.3536C17.2692 15.1583 17.2692 14.8417 17.4645 14.6464C17.6597 14.4512 17.9763 14.4512 18.1716 14.6464Z" fill="white"/>
<path fill-rule="evenodd" clip-rule="evenodd" d="M5.82843 5.64645L3.64645 7.82843C3.45118 8.02369 3.45118 8.34027 3.64645 8.53553L5.82843 10.7175C6.02369 10.9128 6.34027 10.9128 6.53553 10.7175C6.7308 10.5223 6.7308 10.2057 6.53553 10.0104L5.20711 8.68198H9C9.27614 8.68198 9.5 8.45812 9.5 8.18198C9.5 7.90584 9.27614 7.68198 9 7.68198H5.20711L6.53553 6.35355C6.7308 6.15829 6.7308 5.84171 6.53553 5.64645C6.34027 5.45118 6.02369 5.45118 5.82843 5.64645Z" fill="white"/>
</svg>
