<svg width="27" height="25" viewBox="0 0 27 25" fill="none" xmlns="http://www.w3.org/2000/svg">
<path fill-rule="evenodd" clip-rule="evenodd" d="M0.25 20.3636C0.25 16.4349 3.43488 13.25 7.36364 13.25H10.6364C14.5651 13.25 17.75 16.4349 17.75 20.3636C17.75 22.7862 15.7862 24.75 13.3636 24.75H4.63636C2.21384 24.75 0.25 22.7862 0.25 20.3636ZM7.36364 14.75C4.26331 14.75 1.75 17.2633 1.75 20.3636C1.75 21.9577 3.04227 23.25 4.63636 23.25H13.3636C14.9577 23.25 16.25 21.9577 16.25 20.3636C16.25 17.2633 13.7367 14.75 10.6364 14.75H7.36364Z" fill="white"/>
<path fill-rule="evenodd" clip-rule="evenodd" d="M9 1.75C6.65279 1.75 4.75 3.65279 4.75 6C4.75 8.34721 6.65279 10.25 9 10.25C11.3472 10.25 13.25 8.34721 13.25 6C13.25 3.65279 11.3472 1.75 9 1.75ZM3.25 6C3.25 2.82436 5.82436 0.25 9 0.25C12.1756 0.25 14.75 2.82436 14.75 6C14.75 9.17564 12.1756 11.75 9 11.75C5.82436 11.75 3.25 9.17564 3.25 6Z" fill="white"/>
<path d="M21 6.75C21 6.33579 21.3358 6 21.75 6C22.1642 6 22.5 6.33579 22.5 6.75V14.75C22.5 15.1642 22.1642 15.5 21.75 15.5C21.3358 15.5 21 15.1642 21 14.75V6.75Z" fill="white"/>
<path d="M17.75 11.5C17.3358 11.5 17 11.1642 17 10.75C17 10.3358 17.3358 10 17.75 10H25.75C26.1642 10 26.5 10.3358 26.5 10.75C26.5 11.1642 26.1642 11.5 25.75 11.5H17.75Z" fill="white"/>
</svg>
