<svg width="16" height="18" viewBox="0 0 16 18" fill="none" xmlns="http://www.w3.org/2000/svg">
<path d="M1.75 11C1.75 10.5858 1.41421 10.25 1 10.25C0.585786 10.25 0.25 10.5858 0.25 11H1.75ZM15.75 11C15.75 10.5858 15.4142 10.25 15 10.25C14.5858 10.25 14.25 10.5858 14.25 11H15.75ZM7.25 12C7.25 12.4142 7.58579 12.75 8 12.75C8.41421 12.75 8.75 12.4142 8.75 12H7.25ZM8 1L8.53033 0.46967C8.23744 0.176777 7.76256 0.176777 7.46967 0.46967L8 1ZM2.46967 5.46967C2.17678 5.76256 2.17678 6.23744 2.46967 6.53033C2.76256 6.82322 3.23744 6.82322 3.53033 6.53033L2.46967 5.46967ZM12.4697 6.53033C12.7626 6.82322 13.2374 6.82322 13.5303 6.53033C13.8232 6.23744 13.8232 5.76256 13.5303 5.46967L12.4697 6.53033ZM0.25 11V14H1.75V11H0.25ZM4 17.75H12V16.25H4V17.75ZM15.75 14V11H14.25V14H15.75ZM8.75 12V1H7.25V12H8.75ZM7.46967 0.46967L2.46967 5.46967L3.53033 6.53033L8.53033 1.53033L7.46967 0.46967ZM7.46967 1.53033L12.4697 6.53033L13.5303 5.46967L8.53033 0.46967L7.46967 1.53033ZM12 17.75C14.0711 17.75 15.75 16.0711 15.75 14H14.25C14.25 15.2426 13.2426 16.25 12 16.25V17.75ZM0.25 14C0.25 16.0711 1.92893 17.75 4 17.75V16.25C2.75736 16.25 1.75 15.2426 1.75 14H0.25Z" fill="white"/>
</svg>
